<svg width="16" height="17" viewBox="0 0 16 17" fill="none" xmlns="http://www.w3.org/2000/svg">
<path d="M13.6298 14.1732H11.2633V10.4597C11.2633 9.57416 11.2448 8.43616 10.0258 8.43616C8.79176 8.43616 8.60376 9.39666 8.60376 10.3942V14.1727H6.23426V6.53716H8.51026V7.57866H8.54076C8.85876 6.97716 9.63226 6.34466 10.7863 6.34466C13.1868 6.34466 13.6323 7.92516 13.6323 9.98016V14.1727L13.6298 14.1732ZM3.55726 5.49366C3.37639 5.49372 3.19729 5.45811 3.03022 5.38885C2.86314 5.31959 2.71137 5.21805 2.5836 5.09005C2.45583 4.96204 2.35456 4.81009 2.28561 4.64289C2.21665 4.47568 2.18136 4.29652 2.18176 4.11566C2.18205 3.84343 2.26306 3.57741 2.41454 3.35122C2.56601 3.12503 2.78116 2.94884 3.03276 2.84491C3.28437 2.74099 3.56114 2.714 3.82808 2.76736C4.09503 2.82073 4.34015 2.95204 4.53247 3.14471C4.72479 3.33738 4.85566 3.58274 4.90854 3.84978C4.96141 4.11682 4.93393 4.39354 4.82954 4.64496C4.72516 4.89638 4.54858 5.1112 4.32211 5.26227C4.09565 5.41333 3.82948 5.49386 3.55726 5.49366ZM4.74426 14.1732H2.36976V6.53766H4.74426V14.1732ZM14.8178 0.537659H1.17976C0.528256 0.537659 -0.000244141 1.05316 -0.000244141 1.69116V15.3847C-0.000244141 16.0227 0.528256 16.5382 1.17976 16.5382H14.8153C15.4658 16.5382 15.9998 16.0227 15.9998 15.3847V1.69116C15.9998 1.05316 15.4658 0.537659 14.8153 0.537659H14.8178Z" fill="#586698"/>
</svg>
