<svg width="12" height="17" viewBox="0 0 12 17" fill="none" xmlns="http://www.w3.org/2000/svg">
<path d="M5.38338 16.3289C0.842813 9.74645 0 9.07089 0 6.65173C0 3.33801 2.68628 0.651733 6 0.651733C9.31372 0.651733 12 3.33801 12 6.65173C12 9.07089 11.1572 9.74645 6.61662 16.3289C6.31866 16.7594 5.68131 16.7593 5.38338 16.3289ZM6 9.15173C7.38072 9.15173 8.5 8.03245 8.5 6.65173C8.5 5.27101 7.38072 4.15173 6 4.15173C4.61928 4.15173 3.5 5.27101 3.5 6.65173C3.5 8.03245 4.61928 9.15173 6 9.15173Z" fill="#586698"/>
</svg>
